# xmcd
#
# Track frame offsets:
#	150
#	26375
#	50445
#	62672
#	70100
#	86885
#	117030
#	129275
#	168707
#	195932
#
# Disc length: 2729 seconds
#
# Revision: 0
# Processed by: cddbd v1.4PL0 Copyright (c) Steve Scherf et al.
# Submitted via: MusicWizard 6.0.2
#
DISCID=7e0aa70a
DTITLE=Various Artist - Blues Is A-Live
DYEAR=1900
DGENRE=Blues
TTITLE0=Sleepy John Estes, Hammie Nixon And Yuka Dan - Mary Come On Home
TTITLE1=Sleepy John Estes, Hammie Nixon And Yuka Dan - Rats In My Kitchen
TTITLE2=Sleepy John Estes, Hammie Nixon And Yuka Dan - Potato Digging Man
TTITLE3=Sleepy John Estes, Hammie Nixon And Yuka Dan - Fox Chase
TTITLE4=Sleepy John Estes, Hammie Nixon And Yuka Dan - Sleepy John's Twist
TTITLE5=Sleepy John Estes, Hammie Nixon And Yuka Dan - Careless Love
TTITLE6=Sleepy John Estes, Hammie Nixon And Yuka Dan - I've Been Well Warned
TTITLE7=Sleepy John Estes, Hammie Nixon And Yuka Dan - 80 Highway
TTITLE8=Sleepy John Estes, Hammie Nixon And Yuka Dan - Going To Brownsville
TTITLE9=Sleepy John Estes, Hammie Nixon And Yuka Dan - Jesus On The Mainline
EXTD=
EXTT0=
EXTT1=
EXTT2=
EXTT3=
EXTT4=
EXTT5=
EXTT6=
EXTT7=
EXTT8=
EXTT9=
PLAYORDER=
